<svg width="22" height="22" viewBox="0 0 22 22" fill="none" xmlns="http://www.w3.org/2000/svg">
<path d="M3.4193 7.09042L2.77259 10.8302C2.61107 11.7643 3.32937 12.6187 4.27629 12.6187L9.02563 12.6187C9.49634 12.6187 9.85476 13.0412 9.77858 13.5062L9.17111 17.2137C9.07247 17.816 9.10062 18.4323 9.25388 19.0231C9.38084 19.5125 9.75841 19.9055 10.255 20.065L10.3879 20.1077C10.688 20.2041 11.0155 20.1817 11.2985 20.0453C11.6099 19.8952 11.8378 19.6215 11.9222 19.2959L12.3583 17.6149C12.497 17.08 12.6991 16.5638 12.9597 16.0759C13.3404 15.3632 13.9291 14.7927 14.541 14.2655L15.8599 13.129C16.2317 12.8085 16.427 12.3286 16.3847 11.8393L15.6402 3.22933C15.5719 2.43962 14.9116 1.83334 14.1198 1.83334L9.85861 1.83334C6.66742 1.83334 3.944 4.0568 3.4193 7.09042Z" fill="#AA0000"/>
<path fill-rule="evenodd" clip-rule="evenodd" d="M19.2796 13.3054C18.9118 13.3212 18.5968 13.0445 18.5651 12.6777L17.6744 2.37757C17.6172 1.71592 18.1384 1.14566 18.8039 1.14566C19.4307 1.14566 19.9375 1.65423 19.9375 2.27985L19.9375 12.6185C19.9375 12.9867 19.6475 13.2895 19.2796 13.3054Z" fill="#AA0000"/>
</svg>
