<svg width="22" height="22" viewBox="0 0 22 22" fill="none" xmlns="http://www.w3.org/2000/svg">
<path d="M18.5807 14.9096L19.2274 11.1698C19.3889 10.2357 18.6706 9.38135 17.7237 9.38135H12.9744C12.5037 9.38135 12.1452 8.95884 12.2214 8.49381L12.8289 4.7863C12.9275 4.18398 12.8994 3.56766 12.7461 2.97689C12.6192 2.4875 12.2416 2.09453 11.745 1.93502L11.6121 1.89232C11.312 1.79591 10.9845 1.81834 10.7015 1.95469C10.3901 2.10476 10.1622 2.3785 10.0778 2.70406L9.64174 4.38509C9.50295 4.91996 9.30092 5.43624 9.04029 5.92406C8.65955 6.63682 8.07089 7.20725 7.45898 7.73455L6.14014 8.87103C5.76829 9.1915 5.573 9.67138 5.61531 10.1607L6.3598 18.7707C6.42809 19.5604 7.08836 20.1667 7.88016 20.1667H12.1414C15.3326 20.1667 18.056 17.9432 18.5807 14.9096Z" fill="#14B11B"/>
<path fill-rule="evenodd" clip-rule="evenodd" d="M2.72036 8.69465C3.08819 8.67878 3.40323 8.95549 3.43494 9.32231L4.32558 19.6224C4.38279 20.2841 3.86162 20.8543 3.19615 20.8543C2.56932 20.8543 2.0625 20.3458 2.0625 19.7201V9.38153C2.0625 9.01335 2.35253 8.71053 2.72036 8.69465Z" fill="#14B11B"/>
</svg>
